<svg width="270" height="40" viewBox="0 0 270 40" fill="none" xmlns="http://www.w3.org/2000/svg">
<path fill-rule="evenodd" clip-rule="evenodd" d="M261.578 35.2914C261.578 33.3333 263.049 31.8403 264.942 31.8403C266.819 31.8403 268.296 33.3333 268.296 35.2914C268.296 37.2908 266.819 38.7662 264.942 38.7662C263.049 38.7662 261.578 37.2908 261.578 35.2914ZM264.942 39.4493C267.202 39.4493 269.129 37.6976 269.129 35.2914C269.129 32.9223 267.202 31.1573 264.942 31.1573C262.668 31.1573 260.745 32.9217 260.745 35.2914C260.745 37.6976 262.668 39.4493 264.942 39.4493ZM264.064 35.6163H264.899L266.162 37.6976H266.973L265.613 35.5847C266.315 35.4967 266.853 35.1293 266.853 34.2757C266.853 33.3339 266.293 32.9223 265.163 32.9223H263.344V37.6976H264.065V35.6163H264.064ZM264.064 35.0091V33.5288H265.053C265.558 33.5288 266.096 33.6381 266.096 34.2307C266.096 34.9648 265.547 35.0085 264.932 35.0085L264.064 35.0091ZM60.266 24.7395C58.5696 24.7395 58.0851 25.139 57.8429 25.7675L54.4506 34.6181C54.209 35.2465 54.0875 35.7602 54.0875 36.1597C54.0875 36.8452 54.1476 37.4153 58.8726 37.8731V39.3576C57.9637 39.3576 54.9959 39.0152 52.6328 39.0152C50.3917 39.0152 48.3923 39.3576 47.181 39.3576V37.9866C50.7554 37.7007 51.6036 36.6157 52.2697 34.8464L66.0815 0.52884H66.869L80.4391 34.9605C81.4081 37.4736 82.5587 37.8731 85.7093 37.8731V39.3576C84.5581 39.3576 82.498 39.0152 77.6522 39.0152C72.6243 39.0152 71.4737 39.3576 70.5053 39.3576V37.8731C72.9285 37.7583 75.1695 37.4736 75.1695 36.5592C75.1695 36.3315 75.1695 36.0455 74.8064 35.0747L71.0505 24.7401H60.266V24.7395ZM64.7797 7.92228L64.2035 9.20826L59.6601 21.1998C59.4786 21.6563 59.3571 22.1129 59.3571 22.5124C59.3571 22.7984 59.5387 23.0273 59.9024 23.0273L70.5041 23.1979L64.7797 7.92228ZM111.296 38.7529C109.181 38.963 104.672 39.3291 104.171 39.3291C103.948 39.3291 103.781 39.119 103.726 38.8573L103.448 36.0765H103.336C102.446 37.9654 99.552 39.8549 95.5994 39.8549C90.7008 39.8549 87.5836 37.7559 87.5836 32.0886V19.6017C87.5836 19.0243 87.1385 18.8142 83.9096 18.8142V17.3977L92.2035 16.8731C92.2035 17.9229 92.0372 19.4967 92.0372 21.3856V36.2872C92.0372 38.3327 94.3195 38.6485 96.1562 38.6485C101.667 38.5962 103.225 35.238 103.225 31.8276V20.1257C103.225 19.0759 102.613 18.8136 99.2733 18.8136V17.3971L107.567 16.8725C107.567 18.4991 107.401 19.9162 107.401 21.9101V33.0334C107.401 34.3971 107.624 36.286 107.735 36.9678C107.846 37.4408 107.958 37.5452 108.124 37.5452H111.297V38.7529H111.296ZM142.764 39.003C148.442 39.003 150.335 33.1779 150.335 28.0893C150.335 22.9994 148.442 17.1749 142.764 17.1749C137.086 17.1749 135.194 22.9994 135.194 28.0893C135.194 33.1785 137.086 39.003 142.764 39.003ZM142.764 16.1785C149.666 16.1785 155.01 20.3764 155.01 28.0893C155.01 35.8021 149.666 40 142.764 40C135.862 40 130.518 35.8021 130.518 28.0893C130.518 20.3764 135.862 16.1785 142.764 16.1785ZM185.947 38.595L178.265 39.4869L177.764 35.9721C175.65 38.3855 173.088 39.8549 169.526 39.8549C161.9 39.8549 158.449 33.8203 158.449 27.4718C158.449 21.3327 162.791 16.0334 169.693 16.0334C173.479 16.0334 175.426 17.2927 177.765 19.4967L177.375 4.70006C177.319 3.12629 176.596 2.12933 174.981 2.02429L171.975 1.81421V0.502732C174.925 0.502732 178.599 0.292653 182.162 0.0831815L181.772 35.762C181.772 36.5483 182.217 37.1779 183.163 37.1779H185.947V38.595ZM177.763 24.0613C177.763 20.7031 174.702 17.0298 170.694 17.0298C164.961 17.0298 163.123 22.9059 163.123 27.4718C163.123 34.031 165.962 38.4894 171.194 38.4894C174.979 38.4894 177.763 34.6066 177.763 31.2483V24.0613H177.763ZM192.153 26.5264C191.93 33.9769 194.323 38.4372 200.224 38.4372C205.624 38.4372 208.239 34.9223 209.465 31.5641L210.355 31.8798C208.741 36.6539 205.401 39.8549 199.055 39.8549C191.374 39.8549 187.477 34.8707 187.477 28.5738C187.477 21.6472 192.321 16.0334 199.946 16.0334C206.738 16.0334 210.356 20.7565 210.356 26.527L192.153 26.5264ZM205.233 25.1105C205.79 25.1105 205.902 24.7948 205.902 23.8512C205.902 20.3352 204.066 17.0298 199.945 17.0298C195.214 17.0298 192.375 21.2799 192.153 25.3206L205.233 25.1105ZM214.167 33.1378H215.67C216.339 36.5483 218.676 38.8573 222.238 38.8573C224.353 38.8573 226.413 37.388 226.413 34.6072C226.413 28.9933 214.89 29.5173 214.89 21.9101C214.89 18.657 217.562 16.0334 222.238 16.0334C224.02 16.0334 225.912 16.5052 226.803 16.5052C227.694 16.5052 228.529 16.1906 229.142 16.0334L229.308 22.1724H227.749C227.305 19.6017 225.746 17.0304 222.629 17.0304C220.068 17.0304 218.51 18.4469 218.51 20.861C218.51 26.0553 230.032 25.5829 230.032 32.9284C230.032 36.759 227.305 39.8549 221.738 39.8549C220.959 39.8549 220.069 39.6448 219.177 39.4876C218.343 39.3297 217.508 39.1202 216.839 39.1202C215.949 39.1202 215.392 39.2781 214.557 39.3837L214.167 33.1378ZM242.907 27.1044L240.625 28.9933V37.4414C240.625 37.7559 240.904 37.8081 241.126 37.8081L243.798 38.0182V39.0158H232.666V38.0182L235.727 37.8081C236.395 37.7559 236.618 37.6503 236.618 37.2307V13.7243C236.618 9.94657 236.395 6.16879 236.228 3.91257C236.116 2.23315 233.444 2.02368 232.108 2.02368V0.607165C235.615 0.502125 239.345 0.0825744 240.347 0.0825744C240.625 0.0825744 240.792 0.23983 240.792 0.607165L240.625 27.6284L249.587 19.9684C250.478 19.2338 250.867 18.7614 250.867 18.4991C250.867 18.184 250.588 18.0795 249.42 18.0795H247.639V16.8725H252.982C254.93 16.8725 256.489 16.7681 257.992 16.7152V18.1846C255.209 18.3947 253.372 18.657 251.2 20.3886L245.635 24.901L255.82 38.0182H258.27V39.0158H251.646L242.907 27.1044ZM128.058 18.6333L121.012 19.1184L120.792 31.3491C120.704 35.6017 122.184 37.6982 125.802 37.6982C127.472 37.6982 128.53 37.1208 129.365 36.5968L129.532 36.9114C128.085 38.4863 125.858 39.64 122.964 39.64C118.789 39.64 116.605 36.7189 116.642 32.7298L116.782 19.2374L112.831 19.4566L112.967 17.6205L116.86 17.3989L117.145 8.73892L121.319 8.67031L121.034 17.2817L128.026 16.8506L128.058 18.6333ZM22.6218 0H39.0711V39.0686L22.6218 0ZM22.3796 11.7347H16.6892L5.11365 39.0686H0.927246L19.5356 5.91803L38.1646 39.0686H33.9886L22.3796 11.7347Z" fill="white"/>
<path fill-rule="evenodd" clip-rule="evenodd" d="M19.5355 14.8063L32.9533 39.0686H29.2447L22.1348 20.2392H16.9363L9.82818 39.0686H6.11719L19.5355 14.8063Z" fill="white"/>
<path fill-rule="evenodd" clip-rule="evenodd" d="M10.81 39.0686L19.5355 22.9618L28.2587 39.0686H10.81ZM16.4487 0H0V39.0686L16.4487 0Z" fill="white"/>
</svg>
