<svg width="36" height="40" viewBox="0 0 36 40" fill="none" xmlns="http://www.w3.org/2000/svg">
<path d="M19.332 7.15645L25.6902 10.8112C25.9187 10.9396 25.927 11.2955 25.6902 11.4238L18.1352 15.7699C17.9067 15.9023 17.6365 15.894 17.4245 15.7699L9.86962 11.4238C9.6369 11.2997 9.63275 10.9354 9.86962 10.8112L16.2236 7.15645V0L0 9.32947V27.9883L6.22098 24.4123V17.1027C6.21682 16.8418 6.52433 16.6556 6.7529 16.7963L14.3078 21.1423C14.5364 21.2748 14.6652 21.5108 14.6652 21.755V30.4428C14.6694 30.7037 14.3619 30.8898 14.1333 30.7492L7.77518 27.0943L1.55421 30.6705L17.7778 40L34.0013 30.6705L27.7803 27.0943L21.4223 30.7492C21.1978 30.8858 20.882 30.7078 20.8903 30.4428V21.755C20.8903 21.4942 21.0358 21.2625 21.2477 21.1423L28.8027 16.7963C29.027 16.6598 29.3428 16.8337 29.3345 17.1027V24.4123L35.5555 27.9883V9.32947L19.332 0V7.15645Z" fill="white"/>
</svg>
