<svg width="40" height="40" viewBox="0 0 40 40" fill="none" xmlns="http://www.w3.org/2000/svg">
<g clip-path="url(#clip0_43_4)">
<path d="M7.08333 0H32.9167C36.8333 0 40 3.24786 40 7.26496V32.735C40 36.7521 36.8333 40 32.9167 40H7.08333C3.16667 40 0 36.7521 0 32.735V7.26496C0 3.24786 3.16667 0 7.08333 0Z" fill="white"/>
<path d="M16.0665 23.9316H9.8665L8.59983 27.9658C8.5665 28.1197 8.43317 28.2222 8.28317 28.2051H5.14983C4.9665 28.2051 4.9165 28.1026 4.9665 27.8974L10.3332 12.1196C10.3832 11.9487 10.4332 11.7949 10.4998 11.5897C10.5665 11.2308 10.5998 10.8547 10.5998 10.4786C10.5832 10.3932 10.6498 10.3077 10.7332 10.2906H10.7832H15.0498C15.1665 10.2906 15.2498 10.3419 15.2665 10.4273L21.3498 27.8632C21.3998 28.0513 21.3498 28.1367 21.1832 28.1367H17.6998C17.5832 28.1538 17.4665 28.0684 17.4332 27.9487L16.0665 23.8461V23.9316ZM10.8332 20.5299H15.0665C14.9665 20.1709 14.8332 19.7436 14.6832 19.2991C14.5332 18.8376 14.3832 18.3419 14.2332 17.8291C14.0665 17.2991 13.9165 16.7863 13.7498 16.2564C13.5832 15.7265 13.4332 15.2308 13.2998 14.735C13.1665 14.2564 13.0498 13.812 12.9332 13.4017H12.8998C12.7498 14.1367 12.5665 14.8718 12.3332 15.6068C12.0832 16.4273 11.8332 17.282 11.5665 18.1367C11.3498 19.0085 11.0832 19.812 10.8332 20.5299Z" fill="black"/>
<path d="M31.1667 22.3931H25.8834C25.95 22.923 26.1167 23.453 26.4 23.9145C26.7 24.376 27.1167 24.735 27.6167 24.9401C28.2834 25.2307 29.0167 25.3846 29.75 25.3675C30.3334 25.3504 30.9167 25.2991 31.4834 25.1795C32 25.1111 32.5 24.9743 32.9667 24.7863C33.05 24.7179 33.1 24.7521 33.1 24.923V27.5384C33.1 27.6068 33.0834 27.6752 33.0667 27.7436C33.0334 27.7948 33 27.829 32.95 27.8632C32.4167 28.1025 31.8667 28.2735 31.2834 28.376C30.5 28.5299 29.7167 28.5983 28.9167 28.5812C27.65 28.5812 26.5834 28.376 25.7167 27.9829C24.9 27.6239 24.1834 27.0598 23.6167 26.3589C23.0834 25.6923 22.7 24.9401 22.4667 24.1196C22.2334 23.3162 22.1167 22.4786 22.1167 21.6239C22.1167 20.7008 22.25 19.7948 22.5334 18.9059C22.8 18.0512 23.2167 17.2649 23.7834 16.5641C24.3334 15.8803 25.0167 15.3333 25.8 14.9401C26.5834 14.547 27.5167 14.4102 28.5834 14.4102C29.4667 14.3931 30.35 14.5641 31.1667 14.9401C31.85 15.2478 32.45 15.7094 32.9167 16.3077C33.35 16.8889 33.7 17.5384 33.9167 18.2564C34.1334 18.9401 34.2334 19.641 34.2334 20.3418C34.2334 20.7521 34.2167 21.1111 34.2 21.4359C34.1667 21.7606 34.15 22 34.1334 22.1538C34.1167 22.2735 34.0167 22.376 33.9 22.376C33.8 22.376 33.6167 22.3931 33.35 22.4102C33.0834 22.4444 32.7667 22.4615 32.3834 22.4615C32 22.4615 31.6 22.3931 31.1667 22.3931ZM25.8834 19.8974H29.4C29.8334 19.8974 30.15 19.8974 30.35 19.8803C30.4834 19.8632 30.6167 19.829 30.7334 19.7436V19.5726C30.7334 19.3504 30.7 19.1453 30.6334 18.9401C30.3334 17.9829 29.45 17.3333 28.4667 17.3675C27.55 17.3162 26.6834 17.8119 26.25 18.6666C26.05 19.0598 25.9334 19.4701 25.8834 19.8974Z" fill="black"/>
</g>
<defs>
<clipPath id="clip0_43_4">
<rect width="40" height="40" fill="white"/>
</clipPath>
</defs>
</svg>
