<svg width="40" height="40" viewBox="0 0 40 40" fill="none" xmlns="http://www.w3.org/2000/svg">
<path d="M7.08333 0H32.9167C36.8333 0 40 3.24786 40 7.26496V32.735C40 36.7521 36.8333 40 32.9167 40H7.08333C3.16667 40 0 36.7521 0 32.735V7.26496C0 3.24786 3.16667 0 7.08333 0Z" fill="white"/>
<path d="M9.5 28.0342V10.4274C9.5 10.3077 9.55 10.2393 9.66667 10.2393C9.95 10.2393 10.2167 10.2393 10.6 10.2222C11 10.2052 11.4167 10.2052 11.8667 10.1881C12.3167 10.171 12.8 10.171 13.3167 10.1539C13.8333 10.1368 14.3333 10.1368 14.8333 10.1368C16.2 10.1368 17.3333 10.3077 18.2667 10.6667C19.1 10.9573 19.8667 11.4359 20.5 12.0684C21.0333 12.6154 21.45 13.2821 21.7167 14.0171C21.9667 14.7351 22.1 15.4701 22.1 16.2393C22.1 17.7094 21.7667 18.9231 21.1 19.8804C20.4333 20.8376 19.5 21.5556 18.4167 21.9658C17.2833 22.3932 16.0333 22.547 14.6667 22.547C14.2667 22.547 14 22.547 13.8333 22.5299C13.6667 22.5128 13.4333 22.5128 13.1167 22.5128V28C13.1333 28.1197 13.05 28.2222 12.9333 28.2393H12.8667H9.7C9.56667 28.2393 9.5 28.171 9.5 28.0171V28.0342ZM13.1333 13.5556V19.2992C13.3667 19.3163 13.5833 19.3334 13.7833 19.3334H14.6667C15.3167 19.3334 15.9667 19.2308 16.5833 19.0257C17.1167 18.8718 17.5833 18.547 17.95 18.1197C18.3 17.6923 18.4667 17.1111 18.4667 16.359C18.4833 15.8291 18.35 15.2992 18.0833 14.8376C17.8 14.3932 17.4 14.0513 16.9167 13.8633C16.3 13.6069 15.6333 13.5043 14.95 13.5214C14.5167 13.5214 14.1333 13.5214 13.8167 13.5385C13.4833 13.5214 13.25 13.5385 13.1333 13.5556Z" fill="black"/>
<path d="M24.5002 14.5641H27.4168C27.5835 14.5641 27.7168 14.6837 27.7668 14.8376C27.8168 14.9743 27.8502 15.1111 27.8668 15.2649C27.9002 15.4359 27.9335 15.6239 27.9502 15.7948C27.9668 15.9829 27.9835 16.188 27.9835 16.4102C28.4835 15.8119 29.0835 15.3162 29.7668 14.9401C30.5335 14.4957 31.4168 14.2735 32.3002 14.2735C32.4168 14.2564 32.5168 14.3419 32.5335 14.4615V14.5299V17.8632C32.5335 18 32.4502 18.0513 32.2668 18.0513C31.6668 18.0342 31.0502 18.0854 30.4668 18.2222C29.9835 18.3248 29.5168 18.4786 29.0668 18.6837C28.7502 18.8376 28.4502 19.0427 28.2168 19.3162V28.0342C28.2168 28.2051 28.1502 28.2735 28.0002 28.2735H24.7168C24.5835 28.2906 24.4668 28.2051 24.4502 28.0683V28V18.5299C24.4502 18.1196 24.4502 17.6923 24.4335 17.2478C24.4168 16.8034 24.4168 16.3589 24.4002 15.9145C24.4002 15.5213 24.3668 15.1453 24.3335 14.7521C24.3168 14.6666 24.3668 14.5812 24.4502 14.5641C24.4502 14.547 24.4835 14.547 24.5002 14.5641Z" fill="black"/>
</svg>
