<svg width="43" height="40" viewBox="0 0 43 40" fill="none" xmlns="http://www.w3.org/2000/svg">
<g clip-path="url(#clip0_43_70)">
<path d="M29.4351 1.16589H42.0604L25.1868 32.3338C25.1868 32.3338 22.3439 24.0767 21.1221 21.13" fill="white"/>
<path d="M32.5493 39.7045H42.0602V1.16589C42.0522 21.3056 33.5874 39.7045 32.5493 39.7045Z" fill="#E7E7E7"/>
<path d="M25.1867 32.3338H17.3368L0 1.1659C3.07447 0.774606 9.21541 0.247554 12.2579 0L25.1867 32.3338Z" fill="white"/>
<path d="M10.0539 20.028C7.4506 30.3134 -0.00797922 40.008 6.40747e-06 40C8.64045 40 10.5011 38.7463 10.5011 38.0835C10.5011 37.7161 10.5011 26.2408 10.5011 20.8105C10.3494 20.555 10.2056 20.2915 10.0539 20.028Z" fill="#E7E7E7"/>
<path d="M0 1.16589V40C4.72749 32.19 7.48253 27.0792 9.91815 19.7964C3.91296 9.17548 0 1.16589 0 1.16589Z" fill="white"/>
<path d="M31.8945 38.1793L32.5494 39.7045V19.4689L31.8945 20.563" fill="url(#paint0_angular_43_70)"/>
<path d="M32.5176 19.5089V39.6406L32.5415 39.7045C33.2203 39.7045 42.0524 17.9197 42.0524 1.16589C42.0524 1.16589 36.6621 12.4097 32.5176 19.5089Z" fill="white"/>
</g>
<defs>
<radialGradient id="paint0_angular_43_70" cx="0" cy="0" r="1" gradientUnits="userSpaceOnUse" gradientTransform="translate(32.5459 29.5858) rotate(-39) scale(6.36899 6.36899)">
<stop stop-color="white"/>
</radialGradient>
<clipPath id="clip0_43_70">
<rect width="42.0523" height="40" fill="white"/>
</clipPath>
</defs>
</svg>
